<?xml version="1.0" standalone="no"?>
<!DOCTYPE svg PUBLIC "-//W3C//DTD SVG 20010904//EN"
 "http://www.w3.org/TR/2001/REC-SVG-20010904/DTD/svg10.dtd">
<svg version="1.0" xmlns="http://www.w3.org/2000/svg"
 width="512.000000pt" height="512.000000pt" viewBox="0 0 512.000000 512.000000"
 preserveAspectRatio="xMidYMid meet">

<g transform="translate(0.000000,512.000000) scale(0.100000,-0.100000)"
fill="#000000" stroke="none">
<path d="M1810 5104 c-104 -27 -179 -73 -270 -164 -95 -95 -152 -186 -197
-315 l-28 -80 0 -2025 0 -2025 24 -73 c59 -180 200 -320 393 -390 l73 -27 720
-3 c801 -3 801 -3 940 63 168 81 302 253 334 429 8 42 11 647 11 2022 0 2124
2 2030 -52 2157 -53 121 -94 184 -178 267 -92 92 -167 138 -275 165 -86 22
-1411 21 -1495 -1z m1088 -1024 c134 -14 280 -37 387 -61 93 -21 255 -66 262
-73 2 -2 -30 -134 -72 -292 -41 -159 -93 -359 -115 -444 -23 -85 -43 -163 -46
-172 -5 -17 -50 -18 -754 -18 -704 0 -749 1 -754 18 -6 19 -221 842 -231 884
-7 25 -4 28 47 42 147 43 409 91 623 115 114 12 538 13 653 1z m805 -1771 c-8
-6 -238 -39 -275 -39 -17 0 -18 19 -18 262 l0 262 141 375 c78 207 144 381
148 386 3 6 7 -271 9 -614 1 -344 -1 -628 -5 -632z m-2132 831 l143 -375 1
-245 0 -245 -40 1 c-22 0 -88 6 -147 14 l-107 13 -3 601 c-3 552 -2 623 7 614
2 -2 68 -172 146 -378z m8 -1041 c69 -8 119 -18 127 -26 12 -12 14 -88 14
-431 0 -229 -3 -427 -6 -439 -6 -23 -276 -209 -291 -200 -4 3 -7 61 -7 129 1
67 2 318 3 557 l1 433 23 -5 c12 -3 73 -11 136 -18z m2131 -525 c0 -473 -2
-545 -15 -541 -8 3 -75 47 -150 97 l-135 90 0 430 0 429 43 6 c121 18 224 33
240 34 16 1 17 -31 17 -545z m-260 -724 l120 -180 -991 0 -991 0 19 29 c10 16
63 97 118 180 l100 151 752 0 753 0 120 -180z"/>
</g>
</svg>
